<svg xmlns="http://www.w3.org/2000/svg" width="24" height="24" viewBox="0 0 24 24" fill="none" stroke-width="2" stroke-linecap="round" stroke-linejoin="round" aria-hidden="true" focusable="false">
  <path d="M8 6c-2 0-3 1.5-3 4 0 1.2.4 2.2 1 3-1 .8-1.5 2-1 3.5.5 1.2 1.8 2 3.5 2 1 0 2-.3 2.5-1" fill="#C724B1" fill-opacity="0.15" stroke="#C724B1"/>
  <path d="M16 6c2 0 3 1.5 3 4 0 1.2-.4 2.2-1 3 1 .8 1.5 2 1 3.5-.5 1.2-1.8 2-3.5 2-1 0-2-.3-2.5-1" fill="#00B4D8" fill-opacity="0.15" stroke="#00B4D8"/>
  <path d="M9 10c0-1 .8-2 3-2s3 1 3 2" stroke="#8B2BE2"/>
</svg>
