<svg xmlns="http://www.w3.org/2000/svg" width="24" height="24" viewBox="0 0 24 24" fill="none" stroke="currentColor" stroke-width="1.5" stroke-linecap="round" stroke-linejoin="round" aria-hidden="true" focusable="false">

  <ellipse cx="12" cy="12" rx="9" ry="4" stroke-dasharray="3 2" opacity="0.3"/>
  <path d="M12 19c3 0 5-2.5 5-5.5 0-2-1-3.5-2-4 0 1.5-.8 2.5-1.5 3C13 11.5 12.5 10 12.5 8 11 9.5 9 11.5 9 13.5c0 .5.1 1 .3 1.5"/>
  <path d="M12 19c1.2 0 2.5-1 2.5-3 0-1-.6-1.8-1.2-2.3 0 .7-.4 1.3-1 1.6"/>
  <circle cx="19" cy="8" r="1.5" fill="currentColor" stroke="none" opacity="0.5"/>

</svg>
