<svg xmlns="http://www.w3.org/2000/svg" width="24" height="24" viewBox="0 0 24 24" fill="none" stroke="currentColor" stroke-width="1.5" stroke-linecap="round" stroke-linejoin="round" aria-hidden="true" focusable="false">

  <path d="M18 11V7a2 2 0 0 0-2-2 2 2 0 0 0-2 2"/>
  <path d="M14 10V5a2 2 0 0 0-2-2 2 2 0 0 0-2 2v3"/>
  <path d="M10 10.5V8a2 2 0 0 0-2-2 2 2 0 0 0-2 2v6c0 3.3 2.7 6 6 6s6-2.7 6-6v-2a2 2 0 0 0-2-2 2 2 0 0 0-2 2"/>
  <circle cx="16" cy="4" r="1.5" stroke-dasharray="2 1.5" opacity="0.35"/>

</svg>
