<svg xmlns="http://www.w3.org/2000/svg" width="24" height="24" viewBox="0 0 24 24" fill="none" stroke="currentColor" stroke-width="1.5" stroke-linecap="round" stroke-linejoin="round" aria-hidden="true" focusable="false">

  <path d="M12 21c3.5 0 6-3 6-7 0-2.5-1.2-4-2.5-5 0 1.5-.8 2.8-1.5 3.5C13.5 11 13 9 13 7c-1.5 1.5-3 3.5-3 5.5 0 .7.1 1.4.4 2"/>
  <path d="M12 21c1.5 0 3-1.2 3-3.5 0-1.2-.8-2.2-1.5-2.8 0 .8-.4 1.5-1 2"/>
  <circle cx="19" cy="7" r="2" stroke-dasharray="2 1.5" opacity="0.4"/>

</svg>
