<svg xmlns="http://www.w3.org/2000/svg" width="24" height="24" viewBox="0 0 24 24" fill="none" stroke-width="2" stroke-linecap="round" stroke-linejoin="round" aria-hidden="true" focusable="false">
  <defs>
    <linearGradient id="popularFlame" x1="0" y1="1" x2="0" y2="0">
      <stop offset="0%" stop-color="#FF7A00"/>
      <stop offset="100%" stop-color="#FF4D4D"/>
    </linearGradient>
  </defs>
  <path d="M12 21c3.5 0 6-3 6-7 0-2.5-1.2-4-2.5-5 0 1.5-.8 2.8-1.5 3.5C13.5 11 13 9 13 7c-1.5 1.5-3 3.5-3 5.5 0 .7.1 1.4.4 2" fill="url(#popularFlame)" stroke="#FF7A00"/>
  <path d="M12 21c1.5 0 3-1.2 3-3.5 0-1.2-.8-2.2-1.5-2.8 0 .8-.4 1.5-1 2" stroke="#C724B1"/>
  <circle cx="19" cy="7" r="2" stroke="#00B4D8" stroke-dasharray="2 1.5" opacity="0.7"/>
</svg>
